<svg xmlns="http://www.w3.org/2000/svg" xmlns:xlink="http://www.w3.org/1999/xlink" version="1.1" viewBox="0 0 890 2699" style="background: #ffffff"><defs joint-selector="defs"></defs><g joint-selector="layers"  transform="matrix(1,0,0,1,0,0)"><g ></g><g ><!--z-index:0--><!--z-index:1--><!--z-index:2--><!--z-index:3--><!--z-index:4--><!--z-index:5--><!--z-index:6--><!--z-index:7--><!--z-index:8--><!--z-index:9--><!--z-index:10--><!--z-index:11--><!--z-index:12--><g   id="j_9"  transform="translate(20,2655)"><g id="v-47"><text  id="v-48" font-size="24px" xml:space="preserve" y="0.8em" font-weight="normal" text-anchor="start" fill="#444444" pointer-events="none" display="block" font-family="Open Sans"><tspan dy="0"  display="block">Thursday, November 6, 2025 at 7:15 PM Moscow Standard Time</tspan></text></g></g><!--z-index:13--><g   id="j_8"  transform="translate(20,2621)"><g id="v-45"><text  id="v-46" font-size="24px" xml:space="preserve" y="0.8em" font-weight="normal" text-anchor="start" fill="#444444" pointer-events="none" display="block" font-family="Open Sans"><tspan dy="0"  display="block">The container diagram</tspan></text></g></g><!--z-index:14--><g   id="j_7"  transform="translate(20,2575)"><g id="v-43"><text  id="v-44" font-size="36px" xml:space="preserve" y="0.8em" font-weight="normal" text-anchor="start" fill="#444444" pointer-events="none" display="block" font-family="Open Sans"><tspan dy="0"  display="block">Container View</tspan></text></g></g><!--z-index:15--><g   id="j_10"  transform="translate(244,142)" style=""><g  id="v-52" style="opacity: 1;"><rect  x="0" y="160" width="400" height="240" rx="70" id="v-54" stroke-width="2" pointer-events="visiblePainted" fill="#08427b" stroke="#073b6f" stroke-dasharray=""></rect><circle  cx="200" cy="88.88888888888889" r="88.88888888888889" id="v-53" stroke-width="2" pointer-events="visiblePainted" fill="#08427b" stroke="#073b6f" stroke-dasharray=""></circle><line  x1="80" y1="266.6666666666667" x2="80" y2="400" id="v-60" stroke="#073b6f" stroke-width="1" stroke-dasharray=""></line><line  x1="320" y1="266.6666666666667" x2="320" y2="400" id="v-61" stroke="#073b6f" stroke-width="1" stroke-dasharray=""></line><text  id="v-55" font-size="33.599999999999994px" xml:space="preserve" y="231.3" font-weight="bold" text-anchor="middle" pointer-events="visible" font-family="Open Sans" fill="#ffffff" dominant-baseline="hanging" transform="matrix(1,0,0,1,200,0)"><tspan dy="0" >User</tspan></text><text  id="v-56" font-size="16.799999999999997px" xml:space="preserve" y="272.9" text-anchor="middle" font-family="Open Sans" fill="#ffffff" dominant-baseline="hanging" transform="matrix(1,0,0,1,200,0)" style="display: block;"><tspan dy="0" >[Person]</tspan></text><text  id="v-57" font-size="24px" xml:space="preserve" y="304.7" text-anchor="middle" font-family="Open Sans" fill="#ffffff" dominant-baseline="hanging" transform="matrix(1,0,0,1,200,0)" style="display: block;"><tspan dy="0" >A user of the system</tspan></text><g  id="v-58" font-weight="normal" text-anchor="middle" color="#ffffff" transform="matrix(1,0,0,1,197.5,368)" display="none"><g ></g><g ></g><g ></g><g ></g></g><image  id="v-59"></image></g></g><!--z-index:16--><g   id="j_12"  transform="translate(199,822)" style=""><g id="v-72"><rect  id="v-73" width="490" height="1619" rx="0" ry="0" stroke-width="2" pointer-events="none" stroke="#0f5eaa" fill="#ffffff" stroke-dasharray=""></rect><text  id="v-74" font-size="33.599999999999994px" xml:space="preserve" y="1580" font-weight="bold" text-anchor="start" pointer-events="visible" font-family="Open Sans" fill="#0f5eaa" transform="matrix(1,0,0,1,15,0)"><tspan dy="0" >Test System</tspan></text><text  id="v-75" font-size="16.799999999999997px" xml:space="preserve" y="1604" font-weight="normal" text-anchor="start" pointer-events="visible" font-family="Open Sans" fill="#0f5eaa" transform="matrix(1,0,0,1,15,0)"><tspan dy="0" >[Software System]</tspan></text><image  id="v-76" pointer-events="visible"></image></g></g><!--z-index:17--><g   id="j_11"  transform="translate(219,842)" style=""><g  id="v-65" style="opacity: 1;"><rect  id="v-66" rx="1" ry="1" stroke-width="2" pointer-events="visiblePainted" fill="#438dd5" stroke="#3c7fc0" stroke-dasharray="" width="450" height="300"></rect><text  id="v-67" font-size="33.599999999999994px" xml:space="preserve" y="101.30000000000001" font-weight="bold" text-anchor="middle" pointer-events="visible" font-family="Open Sans" fill="#ffffff" dominant-baseline="hanging" transform="matrix(1,0,0,1,225,0)"><tspan dy="0" >Web Application</tspan></text><text  id="v-68" font-size="16.799999999999997px" xml:space="preserve" y="142.9" text-anchor="middle" font-family="Open Sans" fill="#ffffff" dominant-baseline="hanging" transform="matrix(1,0,0,1,225,0)" style="display: block;"><tspan dy="0" >[Container: React]</tspan></text><text  id="v-69" font-size="24px" xml:space="preserve" y="174.7" text-anchor="middle" font-family="Open Sans" fill="#ffffff" dominant-baseline="hanging" transform="matrix(1,0,0,1,225,0)" style="display: block;"><tspan dy="0" >The main web application</tspan></text><g  id="v-70" color="#ffffff" transform="matrix(1,0,0,1,222.5,268)" display="none"><g ></g><g ></g><g ></g><g ></g></g><image  id="v-71"></image></g></g><!--z-index:18--><g   id="j_13"  transform="translate(219,1442)" style=""><g  id="v-77" style="opacity: 1;"><rect  id="v-78" rx="1" ry="1" stroke-width="2" pointer-events="visiblePainted" fill="#438dd5" stroke="#3c7fc0" stroke-dasharray="" width="450" height="300"></rect><text  id="v-79" font-size="33.599999999999994px" xml:space="preserve" y="101.30000000000001" font-weight="bold" text-anchor="middle" pointer-events="visible" font-family="Open Sans" fill="#ffffff" dominant-baseline="hanging" transform="matrix(1,0,0,1,225,0)"><tspan dy="0" >API</tspan></text><text  id="v-80" font-size="16.799999999999997px" xml:space="preserve" y="142.9" text-anchor="middle" font-family="Open Sans" fill="#ffffff" dominant-baseline="hanging" transform="matrix(1,0,0,1,225,0)" style="display: block;"><tspan dy="0" >[Container: Node.js]</tspan></text><text  id="v-81" font-size="24px" xml:space="preserve" y="174.7" text-anchor="middle" font-family="Open Sans" fill="#ffffff" dominant-baseline="hanging" transform="matrix(1,0,0,1,225,0)" style="display: block;"><tspan dy="0" >The REST API</tspan></text><g  id="v-82" color="#ffffff" transform="matrix(1,0,0,1,222.5,268)" display="none"><g ></g><g ></g><g ></g><g ></g></g><image  id="v-83"></image></g></g><!--z-index:19--><g   id="j_14"  transform="translate(219,2042)" style=""><g  id="v-84" style="opacity: 1;"><path  d="M 0,30 a 225,30 0,0,0 450 0 a 225,30 0,0,0 -450 0 l 0,240 a 225,30 0,0,0 450 0 l 0,-240" id="v-85" stroke-width="2" pointer-events="visiblePainted" fill="#f5da81" stroke="#ddc474" stroke-dasharray=""></path><rect  id="v-86" stroke-width="0" pointer-events="visiblePainted" fill="none" stroke="none" width="450" height="270" x="0" y="30"></rect><text  id="v-87" font-size="33.599999999999994px" xml:space="preserve" y="116.30000000000001" font-weight="bold" text-anchor="middle" pointer-events="visible" font-family="Open Sans" fill="#000000" dominant-baseline="hanging" transform="matrix(1,0,0,1,225,0)"><tspan dy="0" >Database</tspan></text><text  id="v-88" font-size="16.799999999999997px" xml:space="preserve" y="157.9" text-anchor="middle" font-family="Open Sans" fill="#000000" dominant-baseline="hanging" transform="matrix(1,0,0,1,225,0)" style="display: block;"><tspan dy="0" >[Container: PostgreSQL]</tspan></text><text  id="v-89" font-size="24px" xml:space="preserve" y="189.7" text-anchor="middle" font-family="Open Sans" fill="#000000" dominant-baseline="hanging" transform="matrix(1,0,0,1,225,0)" style="display: block;"><tspan dy="0" >The main database</tspan></text><g  id="v-90" font-weight="normal" text-anchor="middle" color="#000000" transform="matrix(1,0,0,1,222.5,268)" display="none"><g ></g><g ></g><g ></g><g ></g></g><image  id="v-91"></image></g></g><!--z-index:20--><g   id="j_15" ><path  stroke="#707070" d="M 444 542 L 444 842" id="v-104" stroke-width="2" stroke-dasharray="8 8" fill="none" style="opacity: 1;"></path><path  fill="black" stroke="black" d="M 0 0 0 0" transform="matrix(6.123233995736765e-17,0.9999999999999999,-0.9999999999999999,6.123233995736765e-17,444,542)"></path><path  fill="#707070" stroke="#707070" d="M 20 0 L 0 10 L 20 20 z" id="v-106" transform="matrix(-1.8369701987210294e-16,-0.9999999999999999,0.9999999999999999,-1.8369701987210294e-16,434,842)" style="opacity: 1;"></path><path  d="M 444 542 L 444 842" id="v-105" fill="none" style="cursor: auto; pointer-events: visiblepainted;"></path><g ><g id="v-95"  label-idx="0" cursor="move" transform="matrix(1,0,0,1,444,678.5999755859375)" style="cursor: default; opacity: 1;"><rect joint-selector="rect" id="v-99" fill="#ffffff" rx="3" ry="3" pointer-events="none" width="57.844337463378906" height="35.46862602233887" transform="matrix(1,0,0,1,-28.9,-17.7)"></rect><text joint-selector="text" id="v-98" font-size="24px" xml:space="preserve" y="0.8em" fill="#707070" text-anchor="middle" pointer-events="none" font-family="Open Sans" font-weight="normal" transform="matrix(1,0,0,1,0,-10.3)"><tspan dy="0" >Visits</tspan></text></g><g id="v-96"  label-idx="1" cursor="move" transform="matrix(1,0,0,1,444,709)" style="cursor: default; opacity: 1;"><rect joint-selector="rect" id="v-101" fill="#ffffff" rx="3" ry="3"  pointer-events="none" width="61.10024642944336" height="22.16788959503174" transform="matrix(1,0,0,1,-30.6,-11.1)" style="display: block;"></rect><text joint-selector="text" id="v-100" font-size="16.799999999999997px" xml:space="preserve" y="0.8em" fill="#707070" text-anchor="middle" pointer-events="none"  font-family="Open Sans" font-weight="normal" transform="matrix(1,0,0,1,0,-6.8)" style="display: block;"><tspan dy="0" >[HTTPS]</tspan></text></g><g id="v-97"  label-idx="2" cursor="move" transform="matrix(1,0,0,1,434,717.4000244140625)" style="cursor: default; opacity: 1;"><rect joint-selector="rect" id="v-103" fill="#ffffff" rx="3" ry="3"  width="0" height="0" transform="matrix(1,0,0,1,0,0)" display="none"></rect><text joint-selector="text" id="v-102" fill="#000000" font-size="14" text-anchor="middle" pointer-events="none"></text></g></g><g  display="none" style="display: none;"></g><g  id="v-108" display="none"><g  id="v-93"><path  end="source" d="M 26 0 L 0 13 L 26 26 z"></path></g><g  id="v-94"><path  end="target" d="M 26 0 L 0 13 L 26 26 z"></path></g></g><g  id="v-107" display="none"><g  id="v-92" transform="translate(444, 582) "><g  event="remove"><circle r="11"></circle><path transform="scale(.8) translate(-16, -16)" d="M24.778,21.419 19.276,15.917 24.777,10.415 21.949,7.585 16.447,13.087 10.945,7.585 8.117,10.415 13.618,15.917 8.116,21.419 10.946,24.248 16.447,18.746 21.948,24.248z"></path><title>Remove link.</title></g><g  event="link:options"><circle r="11" transform="translate(25)"></circle><path fill="white" transform="scale(.55) translate(29, -16)" d="M31.229,17.736c0.064-0.571,0.104-1.148,0.104-1.736s-0.04-1.166-0.104-1.737l-4.377-1.557c-0.218-0.716-0.504-1.401-0.851-2.05l1.993-4.192c-0.725-0.91-1.549-1.734-2.458-2.459l-4.193,1.994c-0.647-0.347-1.334-0.632-2.049-0.849l-1.558-4.378C17.165,0.708,16.588,0.667,16,0.667s-1.166,0.041-1.737,0.105L12.707,5.15c-0.716,0.217-1.401,0.502-2.05,0.849L6.464,4.005C5.554,4.73,4.73,5.554,4.005,6.464l1.994,4.192c-0.347,0.648-0.632,1.334-0.849,2.05l-4.378,1.557C0.708,14.834,0.667,15.412,0.667,16s0.041,1.165,0.105,1.736l4.378,1.558c0.217,0.715,0.502,1.401,0.849,2.049l-1.994,4.193c0.725,0.909,1.549,1.733,2.459,2.458l4.192-1.993c0.648,0.347,1.334,0.633,2.05,0.851l1.557,4.377c0.571,0.064,1.148,0.104,1.737,0.104c0.588,0,1.165-0.04,1.736-0.104l1.558-4.377c0.715-0.218,1.399-0.504,2.049-0.851l4.193,1.993c0.909-0.725,1.733-1.549,2.458-2.458l-1.993-4.193c0.347-0.647,0.633-1.334,0.851-2.049L31.229,17.736zM16,20.871c-2.69,0-4.872-2.182-4.872-4.871c0-2.69,2.182-4.872,4.872-4.872c2.689,0,4.871,2.182,4.871,4.872C20.871,18.689,18.689,20.871,16,20.871z"></path><title>Link options.</title></g></g></g></g><!--z-index:21--><g   id="j_16" ><path  stroke="#707070" d="M 444 1142 L 444 1442" id="v-124" stroke-width="2" stroke-dasharray="8 8" fill="none" style="opacity: 1;"></path><path  fill="black" stroke="black" d="M 0 0 0 0" transform="matrix(6.123233995736765e-17,0.9999999999999999,-0.9999999999999999,6.123233995736765e-17,444,1142)"></path><path  fill="#707070" stroke="#707070" d="M 20 0 L 0 10 L 20 20 z" id="v-126" transform="matrix(-1.8369701987210294e-16,-0.9999999999999999,0.9999999999999999,-1.8369701987210294e-16,434,1442)" style="opacity: 1;"></path><path  d="M 444 1142 L 444 1442" id="v-125" fill="none" style="cursor: auto; pointer-events: visiblepainted;"></path><g ><g id="v-115"  label-idx="0" cursor="move" transform="matrix(1,0,0,1,444,1278.5999755859375)" style="cursor: default; opacity: 1;"><rect joint-selector="rect" id="v-119" fill="#ffffff" rx="3" ry="3" pointer-events="none" width="156.21435546875" height="35.46862602233887" transform="matrix(1,0,0,1,-78.1,-17.7)"></rect><text joint-selector="text" id="v-118" font-size="24px" xml:space="preserve" y="0.8em" fill="#707070" text-anchor="middle" pointer-events="none" font-family="Open Sans" font-weight="normal" transform="matrix(1,0,0,1,0,-10.3)"><tspan dy="0" >Makes calls to</tspan></text></g><g id="v-116"  label-idx="1" cursor="move" transform="matrix(1,0,0,1,444,1309)" style="cursor: default; opacity: 1;"><rect joint-selector="rect" id="v-121" fill="#ffffff" rx="3" ry="3"  pointer-events="none" width="106.54441833496094" height="22.16788959503174" transform="matrix(1,0,0,1,-53.3,-11.1)" style="display: block;"></rect><text joint-selector="text" id="v-120" font-size="16.799999999999997px" xml:space="preserve" y="0.8em" fill="#707070" text-anchor="middle" pointer-events="none"  font-family="Open Sans" font-weight="normal" transform="matrix(1,0,0,1,0,-6.8)" style="display: block;"><tspan dy="0" >[JSON/HTTPS]</tspan></text></g><g id="v-117"  label-idx="2" cursor="move" transform="matrix(1,0,0,1,434,1317.4000244140625)" style="cursor: default; opacity: 1;"><rect joint-selector="rect" id="v-123" fill="#ffffff" rx="3" ry="3"  width="0" height="0" transform="matrix(1,0,0,1,0,0)" display="none"></rect><text joint-selector="text" id="v-122" fill="#000000" font-size="14" text-anchor="middle" pointer-events="none"></text></g></g><g  display="none" style="display: none;"></g><g  id="v-128" display="none"><g  id="v-113"><path  end="source" d="M 26 0 L 0 13 L 26 26 z"></path></g><g  id="v-114"><path  end="target" d="M 26 0 L 0 13 L 26 26 z"></path></g></g><g  id="v-127" display="none"><g  id="v-112" transform="translate(444, 1182) "><g  event="remove"><circle r="11"></circle><path transform="scale(.8) translate(-16, -16)" d="M24.778,21.419 19.276,15.917 24.777,10.415 21.949,7.585 16.447,13.087 10.945,7.585 8.117,10.415 13.618,15.917 8.116,21.419 10.946,24.248 16.447,18.746 21.948,24.248z"></path><title>Remove link.</title></g><g  event="link:options"><circle r="11" transform="translate(25)"></circle><path fill="white" transform="scale(.55) translate(29, -16)" d="M31.229,17.736c0.064-0.571,0.104-1.148,0.104-1.736s-0.04-1.166-0.104-1.737l-4.377-1.557c-0.218-0.716-0.504-1.401-0.851-2.05l1.993-4.192c-0.725-0.91-1.549-1.734-2.458-2.459l-4.193,1.994c-0.647-0.347-1.334-0.632-2.049-0.849l-1.558-4.378C17.165,0.708,16.588,0.667,16,0.667s-1.166,0.041-1.737,0.105L12.707,5.15c-0.716,0.217-1.401,0.502-2.05,0.849L6.464,4.005C5.554,4.73,4.73,5.554,4.005,6.464l1.994,4.192c-0.347,0.648-0.632,1.334-0.849,2.05l-4.378,1.557C0.708,14.834,0.667,15.412,0.667,16s0.041,1.165,0.105,1.736l4.378,1.558c0.217,0.715,0.502,1.401,0.849,2.049l-1.994,4.193c0.725,0.909,1.549,1.733,2.459,2.458l4.192-1.993c0.648,0.347,1.334,0.633,2.05,0.851l1.557,4.377c0.571,0.064,1.148,0.104,1.737,0.104c0.588,0,1.165-0.04,1.736-0.104l1.558-4.377c0.715-0.218,1.399-0.504,2.049-0.851l4.193,1.993c0.909-0.725,1.733-1.549,2.458-2.458l-1.993-4.193c0.347-0.647,0.633-1.334,0.851-2.049L31.229,17.736zM16,20.871c-2.69,0-4.872-2.182-4.872-4.871c0-2.69,2.182-4.872,4.872-4.872c2.689,0,4.871,2.182,4.871,4.872C20.871,18.689,18.689,20.871,16,20.871z"></path><title>Link options.</title></g></g></g></g><!--z-index:22--><g   id="j_17" ><path  stroke="#707070" d="M 444 1742 L 444 2042" id="v-144" stroke-width="2" stroke-dasharray="8 8" fill="none" style="opacity: 1;"></path><path  fill="black" stroke="black" d="M 0 0 0 0" transform="matrix(6.123233995736765e-17,0.9999999999999999,-0.9999999999999999,6.123233995736765e-17,444,1742)"></path><path  fill="#707070" stroke="#707070" d="M 20 0 L 0 10 L 20 20 z" id="v-146" transform="matrix(-1.8369701987210294e-16,-0.9999999999999999,0.9999999999999999,-1.8369701987210294e-16,434,2042)" style="opacity: 1;"></path><path  d="M 444 1742 L 444 2042" id="v-145" fill="none" style="cursor: auto; pointer-events: visiblepainted;"></path><g ><g id="v-135"  label-idx="0" cursor="move" transform="matrix(1,0,0,1,444,1878.5999755859375)" style="cursor: default; opacity: 1;"><rect joint-selector="rect" id="v-139" fill="#ffffff" rx="3" ry="3" pointer-events="none" width="177.4123992919922" height="64.26862335205078" transform="matrix(1,0,0,1,-88.7,-32.1)"></rect><text joint-selector="text" id="v-138" font-size="24px" xml:space="preserve" y="0.8em" fill="#707070" text-anchor="middle" pointer-events="none" font-family="Open Sans" font-weight="normal" transform="matrix(1,0,0,1,0,-24.7)"><tspan dy="0" >Reads from and</tspan><tspan dy="1.2em" x="0" >writes to</tspan></text></g><g id="v-136"  label-idx="1" cursor="move" transform="matrix(1,0,0,1,444,1923.4000244140625)" style="cursor: default; opacity: 1;"><rect joint-selector="rect" id="v-141" fill="#ffffff" rx="3" ry="3"  pointer-events="none" width="49.04645538330078" height="22.16788959503174" transform="matrix(1,0,0,1,-24.5,-11.1)" style="display: block;"></rect><text joint-selector="text" id="v-140" font-size="16.799999999999997px" xml:space="preserve" y="0.8em" fill="#707070" text-anchor="middle" pointer-events="none"  font-family="Open Sans" font-weight="normal" transform="matrix(1,0,0,1,0,-6.8)" style="display: block;"><tspan dy="0" >[JDBC]</tspan></text></g><g id="v-137"  label-idx="2" cursor="move" transform="matrix(1,0,0,1,434,1931.800048828125)" style="cursor: default; opacity: 1;"><rect joint-selector="rect" id="v-143" fill="#ffffff" rx="3" ry="3"  width="0" height="0" transform="matrix(1,0,0,1,0,0)" display="none"></rect><text joint-selector="text" id="v-142" fill="#000000" font-size="14" text-anchor="middle" pointer-events="none"></text></g></g><g  display="none" style="display: none;"></g><g  id="v-148" display="none"><g  id="v-133"><path  end="source" d="M 26 0 L 0 13 L 26 26 z"></path></g><g  id="v-134"><path  end="target" d="M 26 0 L 0 13 L 26 26 z"></path></g></g><g  id="v-147" display="none"><g  id="v-132" transform="translate(444, 1782) "><g  event="remove"><circle r="11"></circle><path transform="scale(.8) translate(-16, -16)" d="M24.778,21.419 19.276,15.917 24.777,10.415 21.949,7.585 16.447,13.087 10.945,7.585 8.117,10.415 13.618,15.917 8.116,21.419 10.946,24.248 16.447,18.746 21.948,24.248z"></path><title>Remove link.</title></g><g  event="link:options"><circle r="11" transform="translate(25)"></circle><path fill="white" transform="scale(.55) translate(29, -16)" d="M31.229,17.736c0.064-0.571,0.104-1.148,0.104-1.736s-0.04-1.166-0.104-1.737l-4.377-1.557c-0.218-0.716-0.504-1.401-0.851-2.05l1.993-4.192c-0.725-0.91-1.549-1.734-2.458-2.459l-4.193,1.994c-0.647-0.347-1.334-0.632-2.049-0.849l-1.558-4.378C17.165,0.708,16.588,0.667,16,0.667s-1.166,0.041-1.737,0.105L12.707,5.15c-0.716,0.217-1.401,0.502-2.05,0.849L6.464,4.005C5.554,4.73,4.73,5.554,4.005,6.464l1.994,4.192c-0.347,0.648-0.632,1.334-0.849,2.05l-4.378,1.557C0.708,14.834,0.667,15.412,0.667,16s0.041,1.165,0.105,1.736l4.378,1.558c0.217,0.715,0.502,1.401,0.849,2.049l-1.994,4.193c0.725,0.909,1.549,1.733,2.459,2.458l4.192-1.993c0.648,0.347,1.334,0.633,2.05,0.851l1.557,4.377c0.571,0.064,1.148,0.104,1.737,0.104c0.588,0,1.165-0.04,1.736-0.104l1.558-4.377c0.715-0.218,1.399-0.504,2.049-0.851l4.193,1.993c0.909-0.725,1.733-1.549,2.458-2.458l-1.993-4.193c0.347-0.647,0.633-1.334,0.851-2.049L31.229,17.736zM16,20.871c-2.69,0-4.872-2.182-4.872-4.871c0-2.69,2.182-4.872,4.872-4.872c2.689,0,4.871,2.182,4.871,4.872C20.871,18.689,18.689,20.871,16,20.871z"></path><title>Link options.</title></g></g></g></g><!--z-index:23--></g><g ></g><g ></g><g ></g></g></svg>